<?xml version="1.0" standalone="no"?>
<!DOCTYPE svg PUBLIC "-//W3C//DTD SVG 20010904//EN"
 "http://www.w3.org/TR/2001/REC-SVG-20010904/DTD/svg10.dtd">
<svg version="1.0" xmlns="http://www.w3.org/2000/svg"
 width="257.000000pt" height="284.000000pt" viewBox="0 0 257.000000 284.000000"
 preserveAspectRatio="xMidYMid meet">

<g transform="translate(0.000000,284.000000) scale(0.100000,-0.100000)"
fill="#000000" stroke="none">
<path d="M200 2571 l0 -139 -42 -14 c-60 -19 -78 -54 -83 -165 -5 -106 -11
-283 -25 -698 -6 -170 -12 -343 -14 -382 -1 -40 1 -73 6 -73 4 0 8 -202 8
-449 0 -289 4 -452 10 -456 18 -11 12 -63 -9 -70 -27 -8 -42 -30 -35 -49 5
-13 21 -16 80 -16 72 0 74 1 74 25 0 17 -8 29 -24 37 -33 14 -40 36 -21 64
l15 24 1140 0 c1116 0 1140 0 1150 -19 17 -32 12 -49 -20 -68 -21 -12 -30 -24
-28 -38 3 -18 12 -20 81 -23 75 -3 77 -2 77 20 0 16 -10 30 -30 41 -30 18 -39
44 -21 63 19 18 22 179 14 653 -3 173 0 247 8 257 11 13 8 200 -6 424 -2 41
-7 172 -11 290 -14 496 -18 546 -39 571 -11 12 -34 28 -52 35 -19 8 -33 23
-36 36 -2 13 -5 4 -6 -19 -1 -40 12 -59 21 -31 7 20 58 -19 73 -55 17 -41 13
-44 -22 -18 -30 23 -93 36 -93 20 0 -5 6 -9 14 -9 8 0 17 -8 19 -17 4 -17 5
-17 6 0 1 23 20 21 55 -7 29 -23 30 -25 35 -145 6 -120 6 -122 -18 -138 -13
-8 -20 -10 -16 -3 4 7 1 17 -6 22 -10 7 -9 8 6 4 20 -6 20 -6 1 9 -22 17 -40
20 -31 6 3 -5 1 -12 -5 -16 -12 -7 -11 -15 -20 115 l-7 105 -3 -100 -4 -100
-5 100 -6 100 -57 3 -57 3 -4 -98 c-2 -86 -3 -81 -5 40 l-2 137 -27 -1 c-24
-2 -25 -2 -5 -6 l22 -4 0 -410 c0 -338 -3 -415 -14 -438 -22 -42 -80 -89 -125
-101 -27 -7 -294 -10 -829 -8 l-788 3 -42 28 c-23 15 -53 44 -67 66 l-26 38 3
416 3 417 -22 0 c-23 0 -32 23 -13 35 5 3 10 -1 10 -9 0 -11 9 -16 30 -16 17
0 30 5 30 11 0 6 -6 9 -12 7 -7 -3 -19 2 -27 9 -12 12 -11 17 4 31 17 16 17
16 12 -5 -3 -13 -1 -23 4 -23 5 0 9 9 9 19 0 17 11 20 98 28 127 11 1495 11
1635 0 78 -7 107 -12 107 -22 0 -8 -12 -16 -27 -18 -26 -4 -26 -4 5 -6 21 0
32 -6 32 -16 0 -8 9 -15 20 -15 15 0 20 7 20 26 0 25 2 26 50 22 28 -1 50 0
50 5 0 4 -26 7 -57 7 -35 0 -62 5 -73 15 -26 24 -833 38 -1410 25 -295 -7
-469 -15 -477 -21 -10 -9 -13 16 -15 123 l-3 133 -57 3 -58 3 0 -140z m98 67
c-3 -29 -6 -33 -30 -32 -57 3 -58 3 -58 34 0 29 2 30 46 30 45 0 45 0 42 -32z
m2 -88 c0 -29 -2 -30 -45 -30 -43 0 -45 1 -45 30 0 29 2 30 45 30 43 0 45 -1
45 -30z m0 -86 l0 -35 -42 3 c-32 2 -44 8 -46 21 -7 35 6 47 48 47 39 0 40 -1
40 -36z m1939 -60 c3 -16 1 -17 -13 -5 -19 16 -21 34 -3 29 6 -3 14 -13 16
-24z m-2059 -19 c0 -13 -8 -29 -17 -34 -16 -9 -16 -10 -1 -11 9 0 19 -8 21
-17 3 -10 5 6 6 35 1 50 2 52 21 40 23 -15 27 -38 5 -38 -8 0 -15 -4 -15 -10
0 -5 7 -7 15 -4 21 8 19 -16 -2 -32 -17 -13 -17 -15 1 -29 23 -18 36 -18 70
-5 25 9 37 40 16 40 -5 0 -10 7 -10 15 0 8 7 15 15 15 13 0 15 -24 15 -160 0
-103 -4 -160 -10 -160 -6 0 -13 7 -16 15 -4 8 -12 15 -20 15 -8 0 -14 -7 -14
-15 0 -9 -9 -15 -25 -15 -16 0 -25 6 -25 15 0 8 -8 16 -17 17 -10 1 11 4 47 8
l65 7 -62 1 c-51 2 -63 5 -63 19 0 9 -3 13 -7 10 -3 -4 -6 -23 -5 -44 1 -33 0
-35 -12 -17 -8 10 -12 22 -10 26 3 5 1 8 -5 8 -5 0 -13 -4 -16 -10 -3 -5 -1
-10 5 -10 6 0 8 -4 5 -10 -3 -5 -18 -9 -32 -8 l-26 3 6 119 c6 112 8 121 33
148 29 30 23 39 -8 11 -17 -15 -18 -15 -18 6 0 26 51 81 74 81 10 0 16 -9 16
-25z m95 -27 c0 -22 -6 -33 -15 -33 -10 0 -16 12 -18 33 -3 26 0 32 15 32 15
0 19 -7 18 -32z m2065 -183 l0 -95 -45 0 -45 0 0 88 c0 49 3 92 7 95 3 4 24 7
45 7 l38 0 0 -95z m-86 -111 c12 -5 13 -10 5 -25 -8 -16 -6 -19 15 -19 19 0
24 4 21 20 -3 16 2 20 21 20 28 0 33 -26 7 -33 -10 -3 -3 -5 15 -6 26 -1 32
-5 33 -23 2 -23 2 -23 6 -2 3 18 11 22 43 20 21 0 38 -3 37 -6 -1 -3 4 -14 10
-25 6 -11 13 -99 17 -195 3 -96 9 -232 13 -302 l6 -128 -24 -9 c-24 -10 -24
-10 -1 -10 24 -1 30 -28 12 -61 -12 -22 -73 -46 -78 -30 -3 7 -8 8 -16 1 -7
-6 -52 -12 -102 -14 l-89 -3 110 -2 c92 -2 117 1 148 17 l37 19 0 -57 c0 -31
3 -66 6 -78 6 -22 3 -23 -45 -23 -49 0 -51 1 -52 28 l-2 27 -4 -27 -4 -28
-1124 0 c-995 0 -1124 2 -1119 15 4 8 1 15 -5 15 -6 0 -11 -7 -11 -15 0 -11
-12 -15 -45 -15 l-45 0 0 76 c0 74 1 75 23 68 21 -6 21 -6 4 13 -23 26 -23 73
1 74 16 1 16 2 -1 6 -17 4 -18 20 -12 281 8 361 8 360 50 378 19 8 39 14 45
14 6 0 11 -29 12 -67 l2 -68 3 68 4 67 69 0 69 0 3 -259 3 -259 31 -39 c17
-21 53 -49 80 -63 l48 -25 760 -3 c527 -2 776 1 813 8 60 13 127 59 154 105
16 26 18 64 20 308 1 152 3 277 5 277 1 0 9 -3 18 -6z m236 -1409 l0 -445 -29
0 c-17 0 -33 4 -36 10 -9 14 -2281 14 -2290 0 -3 -5 -22 -10 -41 -10 l-34 0 0
438 c0 241 3 442 7 445 3 4 550 7 1215 7 l1208 0 0 -445z m-24 -502 c-10 -10
-19 5 -10 18 6 11 8 11 12 0 2 -7 1 -15 -2 -18z m-2366 7 c0 -5 -4 -10 -10
-10 -5 0 -10 5 -10 10 0 6 5 10 10 10 6 0 10 -4 10 -10z m58 -78 c3 -10 -12
-12 -62 -11 -49 1 -66 5 -66 16 0 19 121 14 128 -5z m2369 2 c2 -7 -18 -12
-57 -13 -64 -2 -84 4 -74 20 8 13 126 7 131 -7z"/>
<path d="M170 2255 c0 -8 4 -15 10 -15 5 0 7 7 4 15 -4 8 -8 15 -10 15 -2 0
-4 -7 -4 -15z"/>
<path d="M170 2176 c0 -9 5 -16 10 -16 6 0 10 4 10 9 0 6 -4 13 -10 16 -5 3
-10 -1 -10 -9z"/>
<path d="M2370 1924 c0 -8 5 -12 10 -9 6 4 8 11 5 16 -9 14 -15 11 -15 -7z"/>
<path d="M172 1840 c0 -14 2 -19 5 -12 2 6 2 18 0 25 -3 6 -5 1 -5 -13z"/>
<path d="M2381 1844 c0 -11 3 -14 6 -6 3 7 2 16 -1 19 -3 4 -6 -2 -5 -13z"/>
<path d="M2383 1745 c0 -44 2 -61 4 -37 2 23 2 59 0 80 -2 20 -4 1 -4 -43z"/>
<path d="M160 1754 c0 -8 5 -12 10 -9 6 3 10 10 10 16 0 5 -4 9 -10 9 -5 0
-10 -7 -10 -16z"/>
<path d="M162 1670 c0 -19 2 -27 5 -17 2 9 2 25 0 35 -3 9 -5 1 -5 -18z"/>
<path d="M2380 1633 c0 -4 5 -15 10 -23 8 -13 10 -13 10 2 0 9 -4 20 -10 23
-5 3 -10 3 -10 -2z"/>
<path d="M162 1605 c0 -16 2 -22 5 -12 2 9 2 23 0 30 -3 6 -5 -1 -5 -18z"/>
<path d="M2392 1540 c0 -14 2 -19 5 -12 2 6 2 18 0 25 -3 6 -5 1 -5 -13z"/>
<path d="M162 1530 c0 -14 2 -19 5 -12 2 6 2 18 0 25 -3 6 -5 1 -5 -13z"/>
<path d="M2392 1465 c0 -16 2 -22 5 -12 2 9 2 23 0 30 -3 6 -5 -1 -5 -18z"/>
<path d="M151 1444 c0 -11 3 -14 6 -6 3 7 2 16 -1 19 -3 4 -6 -2 -5 -13z"/>
<path d="M152 1388 c-1 -25 -7 -38 -19 -41 -16 -4 -16 -5 -1 -6 9 0 19 -9 21
-18 4 -16 5 -16 6 -1 1 11 12 18 34 21 l32 4 -32 1 c-29 2 -32 5 -36 40 l-4
37 -1 -37z"/>
<path d="M2392 1380 c0 -14 2 -19 5 -12 2 6 2 18 0 25 -3 6 -5 1 -5 -13z"/>
<path d="M263 1343 c9 -2 23 -2 30 0 6 3 -1 5 -18 5 -16 0 -22 -2 -12 -5z"/>
<path d="M343 1343 c20 -2 54 -2 75 0 20 2 3 4 -38 4 -41 0 -58 -2 -37 -4z"/>
<path d="M493 1343 c9 -2 23 -2 30 0 6 3 -1 5 -18 5 -16 0 -22 -2 -12 -5z"/>
<path d="M553 1343 c9 -2 25 -2 35 0 9 3 1 5 -18 5 -19 0 -27 -2 -17 -5z"/>
<path d="M628 1343 c12 -2 30 -2 40 0 9 3 -1 5 -23 4 -22 0 -30 -2 -17 -4z"/>
<path d="M723 1343 c9 -2 23 -2 30 0 6 3 -1 5 -18 5 -16 0 -22 -2 -12 -5z"/>
<path d="M808 1343 c7 -3 16 -2 19 1 4 3 -2 6 -13 5 -11 0 -14 -3 -6 -6z"/>
<path d="M888 1343 c7 -3 16 -2 19 1 4 3 -2 6 -13 5 -11 0 -14 -3 -6 -6z"/>
<path d="M968 1343 c7 -3 16 -2 19 1 4 3 -2 6 -13 5 -11 0 -14 -3 -6 -6z"/>
<path d="M1043 1343 c9 -2 23 -2 30 0 6 3 -1 5 -18 5 -16 0 -22 -2 -12 -5z"/>
<path d="M1118 1343 c6 -2 18 -2 25 0 6 3 1 5 -13 5 -14 0 -19 -2 -12 -5z"/>
<path d="M1198 1343 c7 -3 16 -2 19 1 4 3 -2 6 -13 5 -11 0 -14 -3 -6 -6z"/>
<path d="M1278 1343 c6 -2 18 -2 25 0 6 3 1 5 -13 5 -14 0 -19 -2 -12 -5z"/>
<path d="M1358 1343 c7 -3 16 -2 19 1 4 3 -2 6 -13 5 -11 0 -14 -3 -6 -6z"/>
<path d="M1423 1343 c9 -2 23 -2 30 0 6 3 -1 5 -18 5 -16 0 -22 -2 -12 -5z"/>
<path d="M1508 1343 c6 -2 18 -2 25 0 6 3 1 5 -13 5 -14 0 -19 -2 -12 -5z"/>
<path d="M1588 1343 c6 -2 18 -2 25 0 6 3 1 5 -13 5 -14 0 -19 -2 -12 -5z"/>
<path d="M1668 1343 c7 -3 16 -2 19 1 4 3 -2 6 -13 5 -11 0 -14 -3 -6 -6z"/>
<path d="M1748 1343 c7 -3 16 -2 19 1 4 3 -2 6 -13 5 -11 0 -14 -3 -6 -6z"/>
<path d="M1813 1343 c9 -2 25 -2 35 0 9 3 1 5 -18 5 -19 0 -27 -2 -17 -5z"/>
<path d="M1903 1343 c9 -2 23 -2 30 0 6 3 -1 5 -18 5 -16 0 -22 -2 -12 -5z"/>
<path d="M1988 1343 c12 -2 30 -2 40 0 9 3 -1 5 -23 4 -22 0 -30 -2 -17 -4z"/>
<path d="M2058 1343 c6 -2 18 -2 25 0 6 3 1 5 -13 5 -14 0 -19 -2 -12 -5z"/>
<path d="M2133 1343 c9 -2 23 -2 30 0 6 3 -1 5 -18 5 -16 0 -22 -2 -12 -5z"/>
<path d="M2213 1343 c9 -2 23 -2 30 0 6 3 -1 5 -18 5 -16 0 -22 -2 -12 -5z"/>
<path d="M2278 1343 c12 -2 32 -2 45 0 12 2 2 4 -23 4 -25 0 -35 -2 -22 -4z"/>
<path d="M2368 1343 c12 -2 22 -11 22 -19 0 -8 5 -14 10 -14 6 0 9 5 8 12 -2
6 8 15 22 19 18 5 9 7 -30 7 -30 -1 -45 -3 -32 -5z"/>
<path d="M148 1261 c-4 -13 -11 -20 -17 -16 -6 3 -11 1 -11 -4 0 -7 43 -10
128 -9 l127 2 -107 3 c-101 4 -107 5 -110 26 -3 22 -3 22 -10 -2z"/>
<path d="M418 1233 c6 -2 18 -2 25 0 6 3 1 5 -13 5 -14 0 -19 -2 -12 -5z"/>
<path d="M493 1233 c9 -2 23 -2 30 0 6 3 -1 5 -18 5 -16 0 -22 -2 -12 -5z"/>
<path d="M578 1233 c7 -3 16 -2 19 1 4 3 -2 6 -13 5 -11 0 -14 -3 -6 -6z"/>
<path d="M658 1233 c7 -3 16 -2 19 1 4 3 -2 6 -13 5 -11 0 -14 -3 -6 -6z"/>
<path d="M728 1233 c6 -2 18 -2 25 0 6 3 1 5 -13 5 -14 0 -19 -2 -12 -5z"/>
<path d="M808 1233 c6 -2 18 -2 25 0 6 3 1 5 -13 5 -14 0 -19 -2 -12 -5z"/>
<path d="M888 1233 c7 -3 16 -2 19 1 4 3 -2 6 -13 5 -11 0 -14 -3 -6 -6z"/>
<path d="M968 1233 c7 -3 16 -2 19 1 4 3 -2 6 -13 5 -11 0 -14 -3 -6 -6z"/>
<path d="M1038 1233 c6 -2 18 -2 25 0 6 3 1 5 -13 5 -14 0 -19 -2 -12 -5z"/>
<path d="M1123 1233 c9 -2 23 -2 30 0 6 3 -1 5 -18 5 -16 0 -22 -2 -12 -5z"/>
<path d="M1198 1233 c6 -2 18 -2 25 0 6 3 1 5 -13 5 -14 0 -19 -2 -12 -5z"/>
<path d="M1278 1233 c6 -2 18 -2 25 0 6 3 1 5 -13 5 -14 0 -19 -2 -12 -5z"/>
<path d="M1358 1233 c7 -3 16 -2 19 1 4 3 -2 6 -13 5 -11 0 -14 -3 -6 -6z"/>
<path d="M1438 1233 c7 -3 16 -2 19 1 4 3 -2 6 -13 5 -11 0 -14 -3 -6 -6z"/>
<path d="M1518 1233 c7 -3 16 -2 19 1 4 3 -2 6 -13 5 -11 0 -14 -3 -6 -6z"/>
<path d="M1583 1233 c9 -2 23 -2 30 0 6 3 -1 5 -18 5 -16 0 -22 -2 -12 -5z"/>
<path d="M1668 1233 c6 -2 18 -2 25 0 6 3 1 5 -13 5 -14 0 -19 -2 -12 -5z"/>
<path d="M1748 1233 c7 -3 16 -2 19 1 4 3 -2 6 -13 5 -11 0 -14 -3 -6 -6z"/>
<path d="M1828 1233 c7 -3 16 -2 19 1 4 3 -2 6 -13 5 -11 0 -14 -3 -6 -6z"/>
<path d="M1898 1233 c6 -2 18 -2 25 0 6 3 1 5 -13 5 -14 0 -19 -2 -12 -5z"/>
<path d="M1978 1233 c6 -2 18 -2 25 0 6 3 1 5 -13 5 -14 0 -19 -2 -12 -5z"/>
<path d="M2058 1233 c7 -3 16 -2 19 1 4 3 -2 6 -13 5 -11 0 -14 -3 -6 -6z"/>
<path d="M2138 1233 c6 -2 18 -2 25 0 6 3 1 5 -13 5 -14 0 -19 -2 -12 -5z"/>
<path d="M151 1204 c0 -11 3 -14 6 -6 3 7 2 16 -1 19 -3 4 -6 -2 -5 -13z"/>
<path d="M2402 1200 c0 -14 2 -19 5 -12 2 6 2 18 0 25 -3 6 -5 1 -5 -13z"/>
<path d="M135 1025 c-3 -8 -8 -23 -11 -32 -11 -28 -11 -53 -2 -59 10 -6 11
-538 1 -548 -11 -11 -13 -45 -3 -51 6 -3 10 -15 10 -26 0 -18 10 -19 375 -19
l375 0 -2 373 -3 372 -368 3 c-321 2 -368 0 -372 -13z m725 -365 l0 -360 -359
0 -360 0 0 360 1 360 359 0 359 0 0 -360z"/>
<path d="M810 979 c0 -24 23 -21 28 4 2 10 -3 17 -12 17 -10 0 -16 -9 -16 -21z"/>
<path d="M774 716 c-3 -7 -4 -38 -2 -67 3 -51 5 -54 31 -57 l27 -3 0 70 c0 69
-1 71 -25 71 -14 0 -28 -6 -31 -14z m46 -57 c0 -52 -2 -60 -17 -57 -13 2 -19
15 -21 47 -4 52 2 71 23 71 12 0 15 -13 15 -61z"/>
<path d="M423 475 l0 -125 78 0 77 0 1 125 2 125 -79 0 -79 0 0 -125z m110 88
c-18 -2 -48 -2 -65 0 -18 2 -4 4 32 4 36 0 50 -2 33 -4z"/>
<path d="M810 340 c0 -11 7 -20 15 -20 8 0 15 9 15 20 0 11 -7 20 -15 20 -8 0
-15 -9 -15 -20z"/>
<path d="M945 1030 c-5 -8 -9 -514 -5 -712 l0 -28 745 0 745 0 0 28 c4 182 0
705 -5 712 -9 14 -1472 14 -1480 0z m733 -367 l-3 -358 -359 -3 c-313 -2 -358
0 -353 13 4 8 2 17 -3 20 -14 9 -12 53 3 58 8 3 9 8 2 15 -6 7 -8 102 -5 264
3 143 1 260 -4 269 -5 9 -5 25 -1 35 4 11 7 25 6 32 -1 9 76 12 359 12 l360 0
-2 -357z m731 -3 l0 -360 -356 2 -355 3 1 355 c0 195 1 356 1 358 0 1 159 2
354 2 l355 0 0 -360z"/>
<path d="M1590 660 c0 -68 1 -70 25 -70 24 0 25 2 25 70 0 68 -1 70 -25 70
-24 0 -25 -2 -25 -70z m40 0 c0 -47 -3 -60 -15 -60 -11 0 -15 13 -15 53 0 30
3 57 7 60 17 17 23 2 23 -53z"/>
<path d="M1241 475 l0 -126 77 3 77 3 0 123 1 122 -77 0 -78 0 0 -125z m107
88 c-15 -2 -42 -2 -60 0 -18 2 -6 4 27 4 33 0 48 -2 33 -4z"/>
<path d="M1714 989 c-10 -17 13 -36 27 -22 12 12 4 33 -11 33 -5 0 -12 -5 -16
-11z"/>
<path d="M2247 983 c-4 -3 -7 -33 -7 -65 l0 -59 58 3 57 3 3 54 c2 37 -1 57
-10 62 -16 10 -92 12 -101 2z m93 -58 l0 -45 -45 0 -45 0 0 45 0 45 45 0 45 0
0 -45z"/>
<path d="M1730 660 c0 -68 1 -70 25 -70 24 0 25 2 25 70 0 68 -1 70 -25 70
-24 0 -25 -2 -25 -70z m40 0 c0 -47 -3 -60 -15 -60 -12 0 -15 13 -15 60 0 47
3 60 15 60 12 0 15 -13 15 -60z"/>
<path d="M1975 478 l0 -123 78 -3 77 -3 0 126 0 125 -78 0 -78 0 1 -122z m112
85 c-20 -2 -52 -2 -70 0 -17 2 0 4 38 4 39 0 53 -2 32 -4z"/>
<path d="M1714 349 c-10 -17 13 -36 27 -22 12 12 4 33 -11 33 -5 0 -12 -5 -16
-11z"/>
<path d="M770 2422 c0 -5 14 -7 30 -4 17 2 30 6 30 8 0 2 -13 4 -30 4 -16 0
-30 -4 -30 -8z"/>
<path d="M848 2423 c6 -2 18 -2 25 0 6 3 1 5 -13 5 -14 0 -19 -2 -12 -5z"/>
<path d="M923 2423 c9 -2 23 -2 30 0 6 3 -1 5 -18 5 -16 0 -22 -2 -12 -5z"/>
<path d="M1003 2423 c9 -2 25 -2 35 0 9 3 1 5 -18 5 -19 0 -27 -2 -17 -5z"/>
<path d="M1088 2423 c7 -3 16 -2 19 1 4 3 -2 6 -13 5 -11 0 -14 -3 -6 -6z"/>
<path d="M1158 2423 c6 -2 18 -2 25 0 6 3 1 5 -13 5 -14 0 -19 -2 -12 -5z"/>
<path d="M1243 2423 c9 -2 23 -2 30 0 6 3 -1 5 -18 5 -16 0 -22 -2 -12 -5z"/>
<path d="M1318 2423 c7 -3 16 -2 19 1 4 3 -2 6 -13 5 -11 0 -14 -3 -6 -6z"/>
<path d="M1403 2423 c9 -2 23 -2 30 0 6 3 -1 5 -18 5 -16 0 -22 -2 -12 -5z"/>
<path d="M1463 2423 c9 -2 23 -2 30 0 6 3 -1 5 -18 5 -16 0 -22 -2 -12 -5z"/>
<path d="M1553 2423 c9 -2 23 -2 30 0 6 3 -1 5 -18 5 -16 0 -22 -2 -12 -5z"/>
<path d="M1613 2423 c9 -2 25 -2 35 0 9 3 1 5 -18 5 -19 0 -27 -2 -17 -5z"/>
<path d="M1708 2423 c6 -2 18 -2 25 0 6 3 1 5 -13 5 -14 0 -19 -2 -12 -5z"/>
<path d="M1785 2420 c4 -6 11 -8 16 -5 14 9 11 15 -7 15 -8 0 -12 -5 -9 -10z"/>
<path d="M458 2413 c7 -3 16 -2 19 1 4 3 -2 6 -13 5 -11 0 -14 -3 -6 -6z"/>
<path d="M558 2413 c17 -2 47 -2 65 0 17 2 3 4 -33 4 -36 0 -50 -2 -32 -4z"/>
<path d="M688 2413 c7 -3 16 -2 19 1 4 3 -2 6 -13 5 -11 0 -14 -3 -6 -6z"/>
<path d="M1858 2413 c6 -2 18 -2 25 0 6 3 1 5 -13 5 -14 0 -19 -2 -12 -5z"/>
<path d="M1923 2413 c15 -2 37 -2 50 0 12 2 0 4 -28 4 -27 0 -38 -2 -22 -4z"/>
<path d="M2013 2413 c9 -2 23 -2 30 0 6 3 -1 5 -18 5 -16 0 -22 -2 -12 -5z"/>
<path d="M2095 2410 c3 -5 11 -10 16 -10 6 0 7 5 4 10 -3 6 -11 10 -16 10 -6
0 -7 -4 -4 -10z"/>
<path d="M378 2403 c6 -2 18 -2 25 0 6 3 1 5 -13 5 -14 0 -19 -2 -12 -5z"/>
<path d="M955 2400 c-3 -5 3 -10 15 -10 12 0 18 5 15 10 -3 6 -10 10 -15 10
-5 0 -12 -4 -15 -10z"/>
<path d="M1033 2398 c-2 -5 21 -8 51 -8 31 0 56 3 56 8 0 4 -23 7 -51 7 -28 0
-53 -3 -56 -7z"/>
<path d="M1195 2400 c-3 -5 3 -10 15 -10 12 0 18 5 15 10 -3 6 -10 10 -15 10
-5 0 -12 -4 -15 -10z"/>
<path d="M1270 2400 c0 -5 7 -10 16 -10 8 0 12 5 9 10 -3 6 -10 10 -16 10 -5
0 -9 -4 -9 -10z"/>
<path d="M1350 2400 c0 -5 7 -10 16 -10 8 0 12 5 9 10 -3 6 -10 10 -16 10 -5
0 -9 -4 -9 -10z"/>
<path d="M1425 2400 c-3 -5 3 -10 15 -10 12 0 18 5 15 10 -3 6 -10 10 -15 10
-5 0 -12 -4 -15 -10z"/>
<path d="M1505 2400 c-3 -5 3 -10 15 -10 12 0 18 5 15 10 -3 6 -10 10 -15 10
-5 0 -12 -4 -15 -10z"/>
<path d="M1580 2400 c0 -5 9 -10 21 -10 11 0 17 5 14 10 -3 6 -13 10 -21 10
-8 0 -14 -4 -14 -10z"/>
<path d="M575 2389 c-4 -5 5 -9 19 -9 14 0 26 4 26 8 0 11 -39 12 -45 1z"/>
<path d="M631 2381 c-6 -10 -25 -21 -44 -25 -18 -3 -43 -13 -55 -22 -22 -15
-22 -19 -22 -241 l0 -226 33 -31 c19 -17 63 -46 99 -63 l66 -33 541 0 540 0
78 41 c135 70 127 54 131 304 3 213 -2 255 -31 255 -7 0 -29 9 -50 19 -20 10
-40 15 -43 10 -3 -5 -17 -9 -32 -8 -18 0 -22 3 -12 7 24 11 22 32 -3 32 -18 0
-19 -2 -7 -10 12 -8 11 -10 -7 -10 -13 0 -23 -4 -23 -10 0 -7 -183 -10 -530
-10 -347 0 -530 3 -530 10 0 6 -7 10 -15 10 -8 0 -15 -4 -15 -10 0 -5 -11 -10
-25 -10 -14 0 -25 5 -25 10 0 6 7 10 15 10 8 0 15 5 15 10 0 18 -39 11 -49 -9z
m1301 -41 c21 -6 43 -20 48 -31 7 -13 10 -92 8 -223 -4 -238 3 -223 -124 -292
l-81 -44 -535 0 -535 0 -69 36 c-38 20 -81 49 -96 65 l-28 29 0 214 c0 231 -1
229 57 246 42 12 1310 12 1355 0z"/>
<path d="M552 2308 c-9 -9 -12 -72 -12 -221 l0 -210 33 -31 c19 -17 59 -43 89
-58 l55 -28 534 0 534 0 70 41 c114 66 105 41 105 289 0 189 -2 219 -16 224
-9 3 -323 6 -698 6 -517 0 -685 -3 -694 -12z m1382 -4 c14 -5 16 -34 16 -215
0 -241 9 -217 -111 -281 l-72 -38 -521 0 -521 0 -60 31 c-111 58 -105 41 -105
285 0 160 3 214 13 217 18 8 1342 8 1361 1z"/>
<path d="M728 2393 c7 -3 16 -2 19 1 4 3 -2 6 -13 5 -11 0 -14 -3 -6 -6z"/>
<path d="M808 2393 c7 -3 16 -2 19 1 4 3 -2 6 -13 5 -11 0 -14 -3 -6 -6z"/>
<path d="M888 2393 c7 -3 16 -2 19 1 4 3 -2 6 -13 5 -11 0 -14 -3 -6 -6z"/>
<path d="M1668 2393 c7 -3 16 -2 19 1 4 3 -2 6 -13 5 -11 0 -14 -3 -6 -6z"/>
<path d="M1748 2393 c7 -3 16 -2 19 1 4 3 -2 6 -13 5 -11 0 -14 -3 -6 -6z"/>
<path d="M1890 2390 c0 -6 28 -10 62 -10 34 0 59 2 57 4 -9 10 -119 15 -119 6z"/>
<path d="M418 2383 c7 -3 16 -2 19 1 4 3 -2 6 -13 5 -11 0 -14 -3 -6 -6z"/>
<path d="M488 2383 c6 -2 18 -2 25 0 6 3 1 5 -13 5 -14 0 -19 -2 -12 -5z"/>
<path d="M2058 2383 c7 -3 16 -2 19 1 4 3 -2 6 -13 5 -11 0 -14 -3 -6 -6z"/>
<path d="M2130 2380 c19 -13 30 -13 30 0 0 6 -10 10 -22 10 -19 0 -20 -2 -8
-10z"/>
<path d="M778 2373 c6 -2 18 -2 25 0 6 3 1 5 -13 5 -14 0 -19 -2 -12 -5z"/>
<path d="M858 2373 c7 -3 16 -2 19 1 4 3 -2 6 -13 5 -11 0 -14 -3 -6 -6z"/>
<path d="M938 2373 c6 -2 18 -2 25 0 6 3 1 5 -13 5 -14 0 -19 -2 -12 -5z"/>
<path d="M1013 2373 c9 -2 23 -2 30 0 6 3 -1 5 -18 5 -16 0 -22 -2 -12 -5z"/>
<path d="M1088 2373 c6 -2 18 -2 25 0 6 3 1 5 -13 5 -14 0 -19 -2 -12 -5z"/>
<path d="M1178 2373 c7 -3 16 -2 19 1 4 3 -2 6 -13 5 -11 0 -14 -3 -6 -6z"/>
<path d="M1258 2373 c7 -3 16 -2 19 1 4 3 -2 6 -13 5 -11 0 -14 -3 -6 -6z"/>
<path d="M1328 2373 c6 -2 18 -2 25 0 6 3 1 5 -13 5 -14 0 -19 -2 -12 -5z"/>
<path d="M1408 2373 c7 -3 16 -2 19 1 4 3 -2 6 -13 5 -11 0 -14 -3 -6 -6z"/>
<path d="M1488 2373 c7 -3 16 -2 19 1 4 3 -2 6 -13 5 -11 0 -14 -3 -6 -6z"/>
<path d="M1558 2373 c6 -2 18 -2 25 0 6 3 1 5 -13 5 -14 0 -19 -2 -12 -5z"/>
<path d="M1638 2373 c6 -2 18 -2 25 0 6 3 1 5 -13 5 -14 0 -19 -2 -12 -5z"/>
<path d="M1718 2373 c6 -2 18 -2 25 0 6 3 1 5 -13 5 -14 0 -19 -2 -12 -5z"/>
<path d="M390 2360 c0 -5 4 -10 9 -10 6 0 13 5 16 10 3 6 -1 10 -9 10 -9 0
-16 -4 -16 -10z"/>
<path d="M460 2360 c20 -13 40 -13 40 0 0 6 -12 10 -27 10 -22 0 -25 -2 -13
-10z"/>
<path d="M548 2363 c7 -3 16 -2 19 1 4 3 -2 6 -13 5 -11 0 -14 -3 -6 -6z"/>
<path d="M1958 2363 c7 -3 16 -2 19 1 4 3 -2 6 -13 5 -11 0 -14 -3 -6 -6z"/>
<path d="M2038 2363 c7 -3 16 -2 19 1 4 3 -2 6 -13 5 -11 0 -14 -3 -6 -6z"/>
<path d="M2103 2359 c14 -8 22 -8 30 0 8 8 3 11 -18 11 -26 -1 -28 -2 -12 -11z"/>
<path d="M2258 2353 c12 -2 30 -2 40 0 9 3 -1 5 -23 4 -22 0 -30 -2 -17 -4z"/>
<path d="M1119 1658 c-10 -4 -19 -12 -19 -17 0 -5 -3 -16 -6 -24 -3 -9 4 -25
15 -36 19 -19 33 -21 144 -21 107 0 126 2 140 18 20 22 21 42 4 66 -11 14 -32
17 -135 19 -68 1 -132 -1 -143 -5z m269 -37 c6 -41 -20 -51 -136 -51 -57 0
-112 5 -123 10 -18 10 -26 50 -12 64 4 3 66 5 137 4 130 -3 131 -3 134 -27z"/>
</g>
</svg>
