<svg width="640" height="480" xmlns="http://www.w3.org/2000/svg" xmlns:svg="http://www.w3.org/2000/svg">
  <!-- Created with SVG-edit - http://svg-edit.googlecode.com/ -->
  <g>
    <title>Layer 1</title>
    <path fill="none" stroke="#ffd4aa" stroke-width="5" id="svg_1" d="m27,57c1.076,0 1.868,0 3.16667,0c0.74133,0 1.65067,0 2.20833,0c0.64767,0 1.40133,0 2.277,0c2.18133,0 3.51233,0 4.98933,0c1.599,0 3.296,0 5.067,0c1.821,0 3.668,0 5.517,0c3.608,0 5.32467,0 6.98133,0c1.60667,0 3.17334,0 4.71,0c1.51667,0 3.02333,0 4.52999,0c3.05334,0 4.61617,0 6.19601,0c1.58383,0 3.15866,0 4.71149,0c1.51784,0 2.98767,0 4.3965,0c2.58267,0 3.73434,0 4.79601,0c0.98167,0 1.89333,0 2.745,0c0.80167,0 1.56334,0 2.29501,0c1.41333,0 2.11233,0 2.80533,0c0.681,0 1.344,0 1.983,0c0.609,0 1.182,0 1.713,0c0.912,0 1.2835,0 1.604,0c0.2785,0 0.524,0 0.7455,0c0.2065,0 0.407,0 0.6105,0c0.452,0 0.71684,0 1.01067,0c0.32183,0 0.67066,0 1.04549,0c0.39983,0 0.82367,0 1.2705,0c0.95867,0 1.468,0 1.99333,0c0.53734,0 1.08267,0 1.632,0c0.54933,0 1.09467,0 1.632,0c1.03466,0 1.5245,0 1.99333,0c0.44683,0 0.87067,0 1.2705,0c0.37483,0 0.72366,0 1.04549,0c0.55867,0 0.79488,-0.00192 1.008,0.00267c0.19722,0.00425 0.38588,0.01415 0.5715,0.039c0.19184,0.02568 0.39581,0.06715 0.6165,0.129c0.53322,0.14943 0.86131,0.24352 1.59133,0.57067c0.87118,0.3904 1.33289,0.66917 1.78933,1.01067c1.55135,1.16067 1.99199,1.76773 2.48067,2.35467c0.50753,0.60958 0.99466,1.26376 1.4805,1.935c0.48887,0.67543 0.95942,1.35969 1.4355,2.025c0.91058,1.2725 1.35925,1.85106 1.79867,2.39333c0.42079,0.51927 0.83994,1.00672 1.64,1.93333c0.38496,0.44585 1.48441,1.77002 1.825,2.2275c0.33943,0.45591 0.97423,1.37303 1.28,1.81667c0.57852,0.83936 1.3524,1.9173 1.85367,2.4225c0.59962,0.60433 1.45374,1.27648 1.616,1.98666c0.18774,0.82169 0.07201,1.836 0.07201,2.6325c0,0.7515 0,1.88084 0,2.57417c0,0.99866 0,1.94666 0,2.58866c0,1.30334 0,2.10167 0,3.01067c0,0.69467 0.11211,1.82035 -0.54167,2.36817c-0.67952,0.5694 -1.46368,0.99449 -1.97433,1.4965c-0.73006,0.71771 -0.96065,1.74203 -1.65067,2.316c-0.65335,0.54346 -1.71976,0.1411 -2.33333,0.70833c-0.72256,0.66798 -0.98431,1.512 -1.47066,1.97433c-0.72208,0.68641 -1.51236,0.99997 -2.696,1.31734c-0.76174,0.20425 -1.31754,0.79955 -1.75867,1.56667c-0.41574,0.72296 -0.69936,1.63346 -1.18533,2.2c-0.63757,0.74325 -1.68952,0.8547 -2.26784,1.6215c-0.53403,0.70808 -0.04262,1.72267 -0.73216,2.34251c-0.65844,0.59187 -1.3569,1.1489 -1.38483,1.84499c-0.03963,0.98755 0.20905,1.95481 -0.22584,2.8125c-0.34468,0.67978 -0.77333,1.37846 -0.77866,2.2785c-0.00539,0.91065 0,1.8215 0,2.71067c0,0.98933 0,1.78933 0,2.78933c0,0.78933 0,1.51466 0,2.58933c0,0.81067 0,1.71516 0,2.732c0,0.67867 0,1.657 0,2.626c0,0.75716 -0.03674,1.68952 0.00134,2.53533c0.04279,0.95074 0.67291,1.43002 1.39867,1.95334c0.78249,0.56422 1.39858,1.21745 1.57916,2.10567c0.19947,0.98114 -0.02537,1.71475 0.078,2.45299c0.14688,1.04901 0.43463,1.93149 0.9955,2.64818c0.49418,0.63147 1.40017,1.20407 1.662,1.95982c0.26837,0.77461 0.25822,1.74812 0.896,2.448c0.52938,0.58093 0.98846,1.17111 1.48933,2.14917c0.3993,0.77971 0.86543,1.6618 1.4,2.27934c0.5653,0.65305 1.15707,1.17665 1.8215,2.06383c0.34686,0.46315 0.89011,1.27771 1.27983,1.85966c0.59995,0.89586 1.16962,1.77898 1.56267,2.28934c0.6402,0.83127 1.46089,1.29199 2.31999,1.308c0.86319,0.01608 1.89307,-0.17198 2.51201,0.45734c0.70866,0.72054 0.84668,1.32051 1.52483,2.04266c0.47104,0.5016 1.33614,1.35703 1.9375,1.95833c0.64197,0.64189 1.2014,1.19333 1.875,1.70834c0.65593,0.50151 1.47636,0.90761 2.16667,1.66666c0.54433,0.59853 0.69739,1.70087 1.11067,2.30534c0.57384,0.83931 1.24968,1.31621 1.556,2.19466c0.25157,0.72144 0.55743,1.53543 0.886,2.36217c0.33998,0.85542 0.91763,1.61177 0.946,2.27518c0.0442,1.03372 -0.02359,1.77895 0.0015,2.88666c0.01797,0.79395 0.2222,1.68521 0.42517,2.40401c0.22313,0.79018 0.44077,1.81895 0.57466,2.71783c0.1524,1.02306 0.47096,1.78099 0.716,2.45016c0.3642,0.99457 0.51228,1.88919 0.784,2.57066c0.38864,0.97475 0.51717,1.76529 0.85266,2.65266c0.26686,0.70583 0.61874,1.59334 0.64734,2.51401c0.02652,0.85374 0,1.83333 0,2.62267c0,1.04399 0,1.8 0,2.71066c0,0.91066 0,1.82133 0,2.67467c0,0.94267 0,1.63516 0,2.59334c0,0.73199 0,1.89867 0,2.71117c0,1.00616 0,1.73149 0,2.72066c0,0.77934 0,1.77884 0,2.55284c0,0.909 0,1.709 0,2.6685c0,0.79349 0,1.80949 0,2.769c0,0.9765 0,1.65649 0,2.49649c0,0.99734 0,1.81334 0,2.62933c0,0.99867 0,1.87334 0,2.88383c0,0.77934 0,1.77867 0,2.59883c0,0.90134 0,1.84418 0,2.70134c0,0.776 0,1.64799 0,2.72166c0,0.94501 0,1.60367 0,2.61166c0,0.86217 -0.34077,1.84422 0.02083,2.64584c0.33055,0.73277 1.46841,0.89677 1.8965,1.72217c0.3356,0.64708 0.78023,1.46289 1.43451,2.146c0.61514,0.64224 1.23245,1.22665 1.62283,2.05266c0.41609,0.8804 1.06982,1.32063 1.82533,1.68401c0.73805,0.35498 1.01947,1.42789 1.26134,2.09067c0.36711,1.00595 1.05629,1.25972 1.77199,2.15866c0.50706,0.63689 0.71904,1.27032 1.14801,1.89c0.79643,1.15051 1.2135,1.53113 2.082,2.3775c0.4572,0.44554 0.93687,0.8781 1.40999,1.3125c0.9071,0.83289 1.71838,1.56392 2.30135,2.23067c0.67184,0.7684 1.06596,1.48219 1.70932,2.25334c0.48828,0.58528 1.02328,1.0473 2.01601,1.60266c0.81421,0.45551 1.38809,0.79941 1.93066,1.51733c0.59534,0.78772 0.96239,1.62625 1.28534,2.36801c0.38808,0.89136 0.27443,1.94806 0.284,2.70398c0.01067,0.8429 0.3239,1.91479 0.57066,2.46533c0.29033,0.64771 0.64073,1.34668 1.032,2.064c0.58234,1.06763 1.18469,2.01883 1.52534,2.59869c0.55287,0.9411 0.85115,1.74023 0.87199,2.58716c0.02502,1.01669 -0.00644,1.71637 0,2.6955c0.00534,0.81073 0.05428,1.69202 0.284,2.68399c0.19044,0.82236 0.48196,1.62335 0.63068,2.63068c0.0975,0.66046 0.08533,1.68533 0.08533,2.47467c0,1.04401 -0.18477,1.93277 0.036,2.81067c0.21698,0.86285 0.84258,1.50037 1.01668,2.21432c0.23256,0.9537 0.42625,1.70313 0.74866,2.41766c0.44263,0.98096 1.21317,1.75439 1.74034,2.33051c0.44144,0.48242 1.23065,1.48523 1.69833,2.11349c0.47917,0.64371 0.95572,1.24405 1.50667,2.26801c0.38979,0.72443 0.95714,1.37485 1.66232,1.75601c0.77977,0.42148 1.62764,0.77841 2.10567,1.27066c0.69576,0.71643 0.91269,1.5723 1.36934,2.26132c0.68486,1.03339 1.42805,1.39639 1.97333,1.65067c0.99541,0.4642 1.80649,0.77142 2.6635,1.13818c0.43987,0.18823 1.32411,0.55731 2.53618,1.17883c0.73596,0.37738 1.38492,0.79254 2.034,1.086c1.18225,0.53452 1.80127,0.63773 2.673,0.69299c1.0674,0.06766 1.98932,0.02133 2.74933,0.02133c1.00749,0 2.0295,0 2.748,0c0.7905,0 1.81732,0 2.73866,0c0.68401,0 1.68666,0 2.54167,0c0.62,0 1.98,0 2.72,0c0.78,0 1.59999,0 2.905,0c0.45433,0 1.377,0 2.29166,0c0.87466,0 2.04178,0.01059 2.68434,-0.00134c0.98978,-0.01837 2.00243,-0.24478 2.55283,-0.70316c0.76088,-0.63367 1.46616,-1.15854 2.367,-1.2955c0.70634,-0.10739 1.58655,-0.19522 2.59883,-0.44666c0.72897,-0.18106 1.47279,-0.40109 2.51717,-0.87466c0.67613,-0.30658 1.29123,-0.69589 2.22017,-1.19467c0.89241,-0.47919 1.78989,-0.85004 2.36534,-1.07333c1.06789,-0.4144 1.79703,-0.66818 2.57433,-1.11069c0.80345,-0.4574 1.38,-1.05545 2.31433,-1.59549c0.67242,-0.38864 1.59305,-0.68713 2.51401,-0.7045c0.85426,-0.01611 1.85541,0.11102 2.45132,0.37967c0.76056,0.34286 1.34239,0.82648 2.46733,1.82748c0.4586,0.40808 0.92879,0.86621 1.416,1.3515c0.50226,0.50027 1.00751,1.0134 1.48801,1.5495c1.37355,1.53253 1.73357,2.04184 2.06801,2.51718c0.60455,0.85922 1.05774,1.64899 1.452,2.31601c0.59592,1.00827 1.07422,1.63229 1.78616,2.35416c0.61554,0.62408 1.55435,0.75458 1.70316,1.59116c0.16254,0.91376 0.36722,1.59201 0.88,2.33502c0.39532,0.57278 0.58768,1.5878 0.83734,2.29431c0.34125,0.96567 0.46875,2.03397 0.93066,2.62268c0.56491,0.71997 1.78964,0.5498 2.28134,1.29733c0.47644,0.72433 -0.15543,1.92313 0.42465,2.50684c0.63638,0.64038 1.12601,1.1044 1.64734,1.8905c0.44443,0.67017 0.91251,1.46454 1.00015,2.38834c0.06332,0.66742 0.4299,1.61719 0.80118,2.37964c0.39108,0.8031 0.82773,1.61826 1.03201,2.56534c0.16843,0.7807 0.17249,1.64627 0.25067,2.23468c0.16022,1.20593 0.43045,2.11633 0.56332,2.75583c0.20883,1.005 0.26862,1.72418 0.35266,2.80118c0.05264,0.67465 0.24426,1.77008 0.5,2.5625c0.36649,1.13565 0.42188,1.81738 0.47467,2.60184c0.05704,0.8476 0.06345,1.71802 0.24683,2.93381c0.10864,0.72028 0.09067,1.45575 0.7785,2.44351c0.4462,0.64078 0.8194,1.2728 1.25467,2.10266c0.46326,0.88321 1.08093,1.15179 1.68732,1.85449c0.77618,0.89941 0.89172,1.50092 1.09802,2.35352c0.28806,1.19061 0.4931,1.80914 1.00165,2.66849c0.34265,0.57901 0.96429,1.34927 1.55383,2.07266c0.57437,0.70477 0.97894,1.18933 1.52051,2.41486c0.29156,0.65976 0.46191,1.36816 0.76801,1.97998c0.52097,1.04132 1.41122,1.54782 1.87317,2.37485c0.35779,0.64056 0.40463,1.68005 0.66815,2.48917c0.28543,0.8764 0.46585,1.87585 0.59552,2.66849c0.12369,0.75598 0.71597,1.68033 1.12848,2.1355c0.74176,0.81842 0.64114,1.65637 1.13602,2.49869c0.51389,0.87466 1.41293,0.91617 2.03598,1.55099c0.56677,0.57748 1.04016,1.38333 1.51202,2.16901c0.42694,0.71088 0.7923,1.42783 1.33331,2.5c0.32153,0.63724 0.67456,1.34802 1.116,2.08798c0.47232,0.79175 1.03534,1.59116 1.68402,2.37335c0.32657,0.39377 0.99347,1.14166 1.67084,1.77664c0.83966,0.78711 1.5257,1.15521 2.24384,1.59402c0.82394,0.50348 1.40988,1.15619 1.89066,1.69333c0.88742,0.99149 1.19574,1.40082 1.92133,2.23865c0.38705,0.44693 0.78958,0.90866 1.23001,1.35901c1.37802,1.409 1.91449,1.82791 2.44467,2.25702c0.53253,0.431 1.07938,0.84445 1.63199,1.245c1.08832,0.78882 1.63388,1.15228 2.66666,1.875c0.97382,0.68143 1.44714,1.02341 1.936,1.35199c1.02115,0.68634 1.58334,1.03333 2.19202,1.384c1.36072,0.78391 2.15353,1.17755 3,1.60132c0.89444,0.44778 1.8356,0.90216 2.80948,1.371c0.99811,0.4805 2.01471,0.96384 3.03452,1.461c2.0314,0.99036 3.02087,1.49277 3.99066,2c0.95886,0.50153 1.90204,1.01273 2.82901,1.539c0.92371,0.52441 1.8389,1.06259 2.73898,1.629c1.81552,1.14252 2.70566,1.76663 3.59735,2.39603c0.89102,0.62894 1.76508,1.27008 2.62198,1.91248c0.84174,0.63101 1.65625,1.25629 2.44202,1.86752c1.47766,1.14948 2.15402,1.68939 2.79733,2.19199c0.60541,0.47299 1.17545,0.91498 1.71899,1.31549c0.50739,0.37387 0.98395,0.71753 1.44901,1.00052c0.82788,0.50378 1.22955,0.66922 1.60666,0.80798c0.35632,0.13113 0.70755,0.22708 1.04849,0.3165c0.33508,0.08789 0.67245,0.16321 1.00351,0.27151c0.69196,0.22632 1.04297,0.40564 1.39999,0.60532c0.37033,0.20712 0.73843,0.44302 1.0965,0.70651c0.72449,0.53314 1.69403,1.4313 1.978,1.73715c0.80029,0.86197 1.22076,1.46536 1.72552,1.92969c0.95093,0.87476 1.6405,1.12885 2.452,1.34933c0.47977,0.13037 1.03217,0.23593 2.36533,0.42133c0.79178,0.11011 1.66492,0.20282 2.6055,0.2955c0.99673,0.09824 2.04004,0.1875 3.1185,0.26849c1.1019,0.08276 2.21667,0.16385 4.44266,0.26935c1.08942,0.05164 2.15726,0.08456 3.20102,0.1095c1.01761,0.02429 2.00729,0.03818 2.96698,0.04648c0.92767,0.008 1.82135,0.01001 3.49869,0.01068c0.78131,0.00031 1.53067,0 2.25598,0c0.70935,0 1.41068,0 2.112,0c0.70935,0 1.43466,-0.00046 2.96533,0c0.82068,0.00024 1.68539,-0.00003 2.59802,0.01349c0.96472,0.01428 1.98566,0.04181 3.06598,0.09451c1.14508,0.05588 2.36011,0.11945 5.00269,0.392c1.43951,0.14847 2.94308,0.34885 4.5015,0.55801c1.60025,0.21478 3.22723,0.44507 4.87048,0.66599c1.64441,0.22107 3.27505,0.45865 6.46133,0.776c1.52347,0.15173 2.99936,0.25388 4.42502,0.31949c1.37451,0.06326 2.70004,0.08884 3.97501,0.07651c1.22516,-0.01184 2.40305,-0.03302 4.59998,-0.22934c1.02689,-0.09177 2.0025,-0.22696 2.9295,-0.37198c0.88235,-0.13803 1.71677,-0.29245 2.5065,-0.444c0.74658,-0.14325 1.44638,-0.2995 2.73068,-0.51733c0.57941,-0.09827 1.12506,-0.16772 1.638,-0.228c0.48441,-0.05692 0.94568,-0.10236 1.38599,-0.15601c0.42505,-0.05179 0.84314,-0.09125 1.64267,-0.28268c0.40402,-0.09674 0.80728,-0.23325 1.21799,-0.3855c0.42679,-0.15823 0.86603,-0.3421 1.32602,-0.53848c0.48535,-0.20718 0.99463,-0.43704 2.12265,-0.90933c0.61737,-0.25848 1.27109,-0.51907 1.94852,-0.79501c0.69724,-0.28403 1.40762,-0.57544 2.11951,-0.88501c0.71381,-0.31042 1.42947,-0.6113 2.76532,-1.31998c0.64224,-0.3407 1.24319,-0.70767 1.81049,-1.077c0.54324,-0.35367 1.04684,-0.71039 1.51352,-1.05902c0.43686,-0.32632 0.83435,-0.63818 1.50934,-1.19733c0.28223,-0.2338 0.52722,-0.44324 0.73798,-0.633c0.18637,-0.16782 0.34824,-0.3226 0.48602,-0.47101c0.12738,-0.13718 0.24454,-0.27228 0.44266,-0.56265c0.104,-0.15244 0.20236,-0.3194 0.3045,-0.495c0.10727,-0.18439 0.21594,-0.38022 0.33148,-0.58502c0.2485,-0.44049 0.84219,-1.43979 1.18936,-1.96799c0.51343,-0.78119 1.16653,-1.63199 1.65381,-2.2645c0.6387,-0.82907 1.03781,-1.55487 1.32083,-2.20752c0.42725,-0.98517 0.65121,-1.83044 1.08536,-2.54398c0.51996,-0.85455 1.22318,-1.17343 1.948,-2.10269c0.48492,-0.6217 0.74869,-1.44418 0.88,-1.98398c0.29474,-1.21149 0.25504,-2.07874 0.28931,-3.08536c0.02179,-0.6398 0.12402,-1.38348 0.56668,-2.56799c0.26593,-0.71161 0.62558,-1.44666 0.948,-2.23199c0.32574,-0.7934 0.61829,-1.59381 0.836,-2.41867c0.22299,-0.84491 0.38141,-1.74689 0.48001,-2.71201c0.10562,-1.03391 0.11539,-1.57642 0.16666,-2.6875c0.02603,-0.56445 0.06949,-1.69766 0.16666,-2.8125c0.04758,-0.54584 0.18387,-1.6098 0.33334,-2.64581c0.07364,-0.51031 0.23392,-1.51758 0.33334,-2.52084c0.09921,-1.00104 0.11777,-1.50876 0.14581,-2.54166c0.0144,-0.53024 0.02017,-1.629 0.02084,-2.79169c0.00037,-0.60983 0,-1.8855 0,-2.54932c0,-0.67984 0,-1.37466 0,-2.0835c0,-0.72183 0,-2.2005 0,-3.71652c0,-0.7655 0,-1.53198 0,-2.29648c0,-0.75952 0,-1.51102 0,-2.2515c0,-1.436 0,-2.12601 0,-2.79602c0,-1.28 0,-1.88998 0,-2.47998c0,-1.12003 0.00421,-2.16 -0.00134,-3.12668c-0.00531,-0.9267 -0.02832,-1.85367 -0.05582,-2.32916c-0.08899,-1.53882 -0.15698,-2.10226 -0.23083,-2.68817c-0.15338,-1.21677 -0.26035,-1.83145 -0.39468,-2.43735c-0.26187,-1.18106 -0.6098,-2.26575 -1.08798,-3.172c-0.22491,-0.42627 -0.759,-1.18735 -1.33835,-1.87915c-0.87317,-1.04266 -1.20325,-1.37296 -1.79099,-2.12701c-0.61295,-0.78641 -0.91589,-1.20596 -1.5,-2.10583c-0.617,-0.95053 -0.90475,-1.46823 -1.50452,-2.53781c-0.3085,-0.5502 -0.61307,-1.11285 -0.93149,-1.67551c-0.64276,-1.13577 -1.32498,-2.25177 -1.68552,-2.79285c-0.35822,-0.5376 -1.10922,-1.5686 -1.49933,-2.05933c-0.3847,-0.48395 -1.16516,-1.40536 -1.97916,-2.22916c-0.39291,-0.39764 -1.19894,-1.1257 -1.61066,-1.46133c-0.81461,-0.66406 -1.23578,-0.97867 -2.556,-1.87201c-0.45108,-0.30524 -1.38428,-0.89832 -1.85867,-1.18933c-0.94592,-0.58029 -1.41614,-0.86389 -2.80801,-1.64401c-0.44366,-0.24866 -1.31683,-0.71719 -2.1875,-1.16666c-0.43967,-0.22696 -1.3486,-0.68375 -2.3125,-1.16666c-1.0401,-0.52109 -1.59073,-0.79803 -2.16,-1.09067c-0.59076,-0.30368 -1.20126,-0.62299 -1.82999,-0.96152c-0.65131,-0.35071 -2.01135,-1.11218 -2.72,-1.52417c-0.73141,-0.42523 -1.48004,-0.87128 -2.25,-1.32898c-0.79004,-0.46964 -1.59879,-0.95145 -2.42999,-1.43701c-0.84875,-0.49582 -2.60791,-1.49484 -3.51849,-1.99033c-0.91742,-0.49921 -1.83939,-0.98575 -2.75552,-1.45801c-0.89694,-0.46237 -1.7706,-0.90152 -2.61148,-1.314c-0.79517,-0.39005 -2.22299,-1.0654 -2.84067,-1.34268c-0.55182,-0.24771 -1.04904,-0.46051 -1.4985,-0.642c-0.405,-0.16354 -0.77603,-0.30499 -1.12051,-0.42599c-1.22797,-0.4314 -1.85849,-0.62698 -2.55649,-0.85965c-0.81799,-0.27267 -1.28714,-0.42859 -3.00284,-1.00101c-0.6749,-0.22516 -1.38385,-0.4621 -2.11349,-0.70801c-0.73804,-0.24875 -1.4711,-0.49744 -2.18549,-0.74399c-0.68423,-0.23615 -2.42374,-0.8613 -2.8812,-1.03467c-0.78333,-0.29688 -1.78223,-0.68674 -2.85864,-0.97067c-0.41675,-0.10992 -1.35785,-0.30289 -2.39584,-0.52084c-0.54434,-0.11429 -1.10617,-0.20554 -2.77084,-0.64581c-0.5491,-0.14523 -1.64255,-0.49963 -2.20532,-0.70135c-0.58798,-0.21078 -1.20361,-0.44827 -1.85699,-0.70798c-0.70135,-0.27878 -2.2713,-0.92325 -3.15369,-1.28818c-0.939,-0.38834 -1.92004,-0.79663 -2.92798,-1.2225c-1.02341,-0.43243 -2.04669,-0.87021 -3.05402,-1.3125c-0.98199,-0.43115 -2.80444,-1.26239 -3.61798,-1.65765c-0.7543,-0.36649 -1.44778,-0.72095 -2.08801,-1.06052c-0.59769,-0.31702 -1.15259,-0.62427 -1.67401,-0.9165c-0.49454,-0.27716 -1.42123,-0.8009 -1.86731,-1.04483c-0.43658,-0.23871 -0.8685,-0.46902 -1.72134,-0.92133c-0.42523,-0.22552 -1.28745,-0.67773 -2.16666,-1.16666c-0.92102,-0.51215 -1.38925,-0.7851 -2.33334,-1.35419c-0.47632,-0.28711 -1.42114,-0.87265 -2.33334,-1.47916c-0.88507,-0.58847 -1.29688,-0.8988 -2.125,-1.4375c-0.77258,-0.50256 -1.86569,-1.08966 -2.55899,-1.31183c-0.66016,-0.21155 -1.35999,-0.3175 -2.052,-0.58801c-1.20624,-0.47156 -2.04019,-1.07629 -2.48132,-1.38531c-0.90744,-0.63568 -1.34363,-0.98151 -1.78134,-1.31201c-1.22409,-0.92422 -1.96674,-1.45337 -2.64716,-1.98618c-0.67773,-0.5307 -1.02603,-0.80981 -2.043,-1.84366c-0.37704,-0.3833 -1.15375,-1.24612 -1.582,-1.698c-0.4476,-0.47229 -0.91901,-0.96161 -1.43851,-1.4415c-1.10318,-1.01901 -1.73792,-1.50214 -2.39334,-1.99466c-0.66983,-0.50333 -1.36414,-0.99234 -2.064,-1.4805c-0.69751,-0.48651 -1.39319,-0.95825 -2.064,-1.43552c-1.27673,-0.90839 -1.85727,-1.35471 -2.39334,-1.79999c-1.00223,-0.83252 -1.44504,-1.25781 -1.86398,-1.67468c-0.80072,-0.79675 -1.51642,-1.60693 -2.19601,-2.41064c-0.3367,-0.39819 -0.99512,-1.20734 -1.6925,-2c-0.35526,-0.40381 -1.11322,-1.21091 -1.96082,-2.00134c-0.43842,-0.40887 -0.89999,-0.81088 -1.85068,-1.63467c-0.48697,-0.42197 -0.98776,-0.84207 -1.97867,-1.73065c-0.50296,-0.45102 -1.49347,-1.38348 -1.97867,-1.85867c-0.48215,-0.47217 -0.95486,-0.94406 -1.40701,-1.422c-1.297,-1.37103 -1.67462,-1.82834 -2.40448,-2.69101c-0.35004,-0.41371 -1.01776,-1.22095 -1.358,-1.59999c-0.99896,-1.11284 -1.36322,-1.45166 -2.10901,-2.10901c-0.7536,-0.66426 -1.15768,-0.97301 -1.94415,-1.63666c-0.80298,-0.6776 -1.59964,-1.39616 -1.98969,-1.76868c-0.77463,-0.73978 -1.15192,-1.10814 -1.83832,-1.86333c-0.9487,-1.04378 -1.21188,-1.38972 -1.69867,-2.048c-0.67981,-0.91931 -1.27106,-1.83662 -1.67068,-2.43333c-0.38974,-0.58194 -0.92535,-1.40237 -1.57965,-2.25966c-0.46683,-0.61163 -0.87857,-1.49612 -1.35501,-2.30968c-0.32111,-0.54828 -0.91602,-1.17075 -1.26932,-1.776c-0.65033,-1.11404 -0.80963,-1.59384 -1.19733,-2.60133c-0.2066,-0.53683 -0.60153,-1.67348 -0.80002,-2.26132c-0.40308,-1.19363 -0.60223,-1.79372 -0.99548,-2.99017c-0.19504,-0.59343 -0.39005,-1.18169 -0.74734,-2.34734c-0.17499,-0.57088 -0.49939,-1.68822 -0.77182,-2.77184c-0.13251,-0.5271 -0.36658,-1.56406 -0.47467,-2.07466c-0.21347,-1.00847 -0.40991,-2.01082 -0.61069,-3.00934c-0.19922,-0.99081 -0.29797,-1.48091 -0.5,-2.44417c-0.099,-0.47205 -0.39536,-1.83658 -0.59998,-2.6955c-0.19559,-0.82106 -0.38953,-1.60292 -0.70001,-2.69499c-0.19348,-0.68056 -0.45181,-1.62419 -0.79999,-2.39467c-0.45654,-1.01025 -0.94336,-1.53122 -1.34134,-1.996c-0.84299,-0.9845 -1.20166,-1.39775 -1.98135,-2.34534c-0.42133,-0.51207 -0.85052,-1.04601 -1.28098,-1.59599c-0.43356,-0.554 -1.27481,-1.65976 -2.02167,-2.744c-0.35245,-0.51167 -0.68509,-1.0032 -1.24533,-1.936c-0.48322,-0.8046 -1.02115,-1.74963 -1.28769,-2.61299c-0.26532,-0.85944 -0.41556,-1.55046 -0.61633,-2.36301c-0.28949,-1.17148 -0.37949,-2.07356 -0.40448,-2.65784c-0.03571,-0.83496 0.00156,-1.84193 -0.05685,-2.85416c-0.03506,-0.60767 -0.18134,-1.75328 -0.32117,-2.69534c-0.07654,-0.51567 -0.25299,-1.61407 -0.34732,-2.18933c-0.09631,-0.5874 -0.39569,-2.38214 -0.49551,-2.98334c-0.10016,-0.60313 -0.30045,-1.81941 -0.39999,-2.43466c-0.10049,-0.62109 -0.20358,-1.24878 -0.5,-3.18517c-0.10123,-0.66132 -0.19983,-1.32701 -0.29999,-1.9935c-0.09985,-0.66452 -0.29822,-1.97577 -0.39999,-2.616c-0.19656,-1.23656 -0.29135,-1.8278 -0.50452,-2.9505c-0.10196,-0.53699 -0.32101,-1.56421 -0.45267,-2.05267c-0.37949,-1.40793 -0.71289,-2.28404 -1.06818,-3.10883c-0.33618,-0.78046 -0.69971,-1.4809 -1.15298,-2.41467c-0.38269,-0.78831 -0.70963,-1.53786 -0.85501,-2.37599c-0.16718,-0.96376 -0.15277,-1.66655 -0.16217,-2.36134c-0.01712,-1.26338 -0.00449,-2.108 -0.00449,-2.73599c0,-0.76401 0,-2.31883 0,-2.95866c0,-0.68384 0,-1.39867 0,-2.1315c0,-0.73784 0,-1.46767 0,-3.47917c0,-0.5705 0,-1.5435 0,-2.3125c0,-0.8235 0.06061,-1.84439 0.35266,-2.75c0.22467,-0.69664 0.22809,-1.95718 0.75717,-2.57133c0.5415,-0.62856 1.54636,-0.39754 2.25418,-1.24883c0.42905,-0.51602 0.73294,-1.53967 1.03598,-2.332c0.29703,-0.77666 0.64328,-1.68613 1.23599,-2.40001c0.62875,-0.75729 1.14163,-1.2581 1.88,-1.81599c0.70398,-0.53191 1.42831,-0.7579 2.47018,-1.45517c0.36386,-0.24352 1.16708,-0.84943 1.61798,-1.17667c0.96799,-0.7025 1.47635,-1.07307 2.5625,-1.77084c0.54913,-0.35278 1.67068,-1.0038 2.22668,-1.30933c0.54239,-0.29807 1.5817,-0.84008 2.06665,-1.08533c1.25192,-0.6331 1.91132,-0.9577 2.69733,-1.35067c1.04248,-0.5212 1.60843,-0.86944 2.35736,-1.136c0.96115,-0.34209 1.97333,-0.28533 2.76797,-0.28533c1.05069,0 1.68982,-0.01121 2.40002,0.02133c0.77551,0.03553 1.61682,0.09806 2.93933,0.42167c0.95844,0.23452 1.44666,0.42701 2.49664,0.77834c0.55771,0.18661 1.13547,0.39151 2.38135,0.77866c0.66269,0.20592 2.06805,0.60999 2.79733,0.832c0.74542,0.22692 1.50183,0.46705 2.259,0.7395c0.76563,0.27549 2.28299,0.9165 3.02167,1.2925c0.73886,0.37609 1.45508,0.78775 2.15399,1.212c0.68842,0.41788 1.35019,0.84669 1.992,1.26601c0.61951,0.40474 1.77374,1.16161 2.31134,1.4935c0.50522,0.31191 1.44424,0.85964 2.29666,1.3325c0.39655,0.21996 1.51099,0.81611 2.18134,1.23334c0.95932,0.59708 1.5578,1.02069 2.32001,1.76534c0.50406,0.49243 1.11526,1.32031 1.56216,1.76633c0.75595,0.75446 1.61865,0.91696 2.58331,1.28833c0.71725,0.27611 1.56085,0.69542 2.54202,0.75784c0.7951,0.05058 1.80942,-0.05113 2.5,0.10416c0.77243,0.17369 1.63177,0.79048 2.29349,1.33633c0.73828,0.60898 1.09576,0.96445 1.88834,1.61501c0.78644,0.64552 1.58517,1.20644 2.36533,1.68266c0.71671,0.4375 1.40924,0.74275 2.37866,1.40001c0.55298,0.37492 1.38669,1.21599 1.82269,1.65199c0.7515,0.7515 1.28195,1.28302 2.064,2.064c0.48364,0.48299 1.18021,1.1747 1.67648,1.61934c0.8118,0.72731 1.46255,1.23483 2.17285,1.80467c0.38004,0.30489 1.18771,0.95653 1.60532,1.31467c1.34677,1.15498 1.79654,1.59398 2.25568,2.03783c0.46359,0.44815 1.36374,1.37119 1.78934,1.842c0.41699,0.4613 1.50952,1.82097 1.80966,2.25751c0.55206,0.80295 0.95346,1.55969 1.36801,2.14799c0.69684,0.98886 1.29047,1.31779 2.32266,2.30934c0.38562,0.37044 0.78961,0.81996 1.22998,1.30649c0.94305,1.04192 1.41049,1.58508 1.87335,2.11534c0.44379,0.50842 1.55191,1.78635 2.082,2.373c0.39496,0.43709 1.14798,1.20517 1.81732,1.8745c0.56851,0.5685 1.164,1.16402 1.75949,1.75951c0.56851,0.5685 1.38318,1.38316 1.90451,1.9045c0.66666,0.66667 1.35028,1.35429 1.78265,1.74667c1.03418,0.93854 1.68463,1.43822 2.02267,1.70599c0.69324,0.54915 1.39975,1.08195 2.36133,1.88066c0.56894,0.47258 1.27982,1.13895 1.72433,1.505c0.98114,0.80795 1.67911,1.01901 2.36685,1.76216c0.49432,0.53416 1.06421,1.41182 1.66617,1.95284c0.72141,0.64836 1.13412,0.97299 1.98416,1.64584c0.42566,0.33693 1.64651,1.26141 2.38199,1.791c0.34735,0.25011 1.02615,0.72212 1.6925,1.19249c1.04144,0.73515 1.77548,1.27318 2.53818,1.83817c0.39035,0.28915 1.18033,0.88072 1.97916,1.47917c0.80118,0.60022 1.60928,1.20187 2.02084,1.5c0.83359,0.60382 1.25711,0.91104 2.60031,1.8c0.45901,0.3038 1.39487,0.89792 1.858,1.2c0.91367,0.59593 1.37225,0.87236 2.578,1.80017c0.38025,0.2926 1.08929,0.90218 1.75751,1.53583c0.67599,0.64102 1.3508,1.33186 2.06934,2.04666c0.36804,0.36612 1.11353,1.09909 1.49066,1.45601c0.73657,0.69708 1.79739,1.62628 2.46368,2.147c0.61429,0.48006 1.21689,0.88387 1.995,1.51433c0.71661,0.58066 1.39139,1.13602 1.83331,2c0.38181,0.74644 0.37952,1.62553 1.05667,2.24733c0.69699,0.64 1.61212,0.91518 2.24866,1.24068c0.7131,0.36467 1.49432,0.77974 2.31601,1.284c0.88867,0.54536 1.7963,1.19333 2.25568,1.53783c0.46335,0.34749 1.36679,1.06656 1.78934,1.442c1.18939,1.05679 1.5127,1.41815 2.10898,2.0955c0.56738,0.64453 1.09094,1.32921 2.05801,2.31934c0.35486,0.36331 1.15085,1.08003 1.56534,1.43733c0.8175,0.70471 1.22345,1.02423 2.26801,1.896c0.75436,0.62958 1.31314,1.13307 2.16666,1.66667c0.54199,0.33885 1.53714,0.84976 2.19916,1.295c0.99335,0.66808 1.5459,1.20827 2.02884,1.76366c0.46625,0.53621 1.25931,1.61885 1.67068,2.08667c0.56351,0.64084 1.11612,1.1158 2.12216,1.70883c0.81259,0.479 1.49005,1.04565 2.02081,1.5c0.56375,0.48259 1.44879,1.16197 2.061,1.51384c0.9252,0.53175 1.63971,0.84462 2.73068,1.632c0.42139,0.30412 0.84543,0.66847 1.75998,1.47733c0.49298,0.436 0.99857,0.90027 1.53,1.37401c0.54855,0.489 1.70657,1.48624 2.31918,1.98166c0.6207,0.50198 1.25638,0.99388 1.89749,1.479c0.63724,0.48221 1.27261,0.95035 1.89749,1.407c0.60846,0.44466 2.29803,1.67032 2.80252,2.041c0.47549,0.34937 1.33905,0.9847 2.07498,1.55c0.88995,0.68361 1.55283,1.24333 2.03085,1.60666c0.60532,0.46007 2.01981,1.4182 2.668,1.845c0.72903,0.48004 1.52618,0.99693 2.37149,1.545c0.87698,0.5686 1.7699,1.14583 2.65952,1.72501c0.8717,0.5675 2.49042,1.63213 3.20432,2.11566c0.65262,0.44205 1.24475,0.85307 1.7775,1.242c0.48871,0.35678 0.931,0.69608 1.32751,1.026c0.3699,0.3078 1.01804,0.91272 1.30283,1.2175c0.53934,0.57721 1.17468,1.44107 1.64032,1.84451c0.91666,0.79422 1.7717,0.8316 2.65002,1.20865c0.95328,0.40921 1.60373,0.59238 2.43933,0.73135c1.00519,0.16721 1.84308,0.43527 2.41782,0.67764c1.21637,0.51294 1.79379,0.89835 2.41635,1.2175c0.63025,0.32312 1.99686,0.80121 2.7363,0.91101c0.7605,0.11295 1.55054,0.12933 2.74286,0.27649c0.8053,0.0994 1.62189,0.26657 2.47198,0.444c0.44263,0.09238 1.86078,0.39224 2.37067,0.48917c1.06152,0.20175 1.60681,0.29727 2.70667,0.46417c0.5448,0.08267 2.11694,0.27423 2.60852,0.31467c0.94958,0.07809 1.90472,0.12033 2.40082,0.14667c1.06549,0.05655 2.27484,0.13907 2.94781,0.19601c0.7124,0.06027 1.45245,0.13062 2.20953,0.20398c0.76324,0.07397 2.26331,0.22418 2.97864,0.29068c1.30499,0.12131 1.8761,0.16473 2.85785,0.23132c0.80157,0.05438 1.7702,0.06821 2.76086,0.33667c0.85791,0.23248 1.79926,0.67206 2.57062,0.71466c0.93994,0.05191 1.63202,0.00134 2.66937,0.00134c0.78668,0 1.86603,0.02417 2.46747,-0.0625c0.93878,-0.13528 1.95648,-0.77243 2.30316,-1.25616c0.58575,-0.81729 1.16791,-1.85419 1.44037,-2.20285c0.58557,-0.74936 1.27679,-1.49982 1.63165,-1.88916c0.72156,-0.79166 1.44269,-1.58475 2.11603,-2.384c0.32446,-0.38513 0.9126,-1.13287 1.46912,-1.77664c0.67035,-0.77545 1.40594,-1.31406 1.93854,-1.6965c1.10193,-0.79131 1.42517,-1.14832 2.19232,-1.89084c0.4129,-0.39966 0.83411,-0.81194 1.63733,-1.67734c0.76166,-0.82062 1.41901,-1.57959 1.94269,-2.32401c0.49982,-0.71051 0.73523,-1.0831 1.30798,-2.34c0.42828,-0.93985 0.59869,-1.45981 0.77869,-1.98666c0.36493,-1.06812 0.55115,-1.60242 0.888,-3.18001c0.10406,-0.48743 0.23767,-1.41312 0.29163,-2.27083c0.05005,-0.79544 0.03156,-1.89592 0.0462,-2.91434c0.00964,-0.66911 0.02924,-1.36053 0.16217,-2.48149c0.09973,-0.84094 0.26361,-1.7486 0.40796,-2.724c0.07526,-0.50847 0.26343,-2.10898 0.30383,-2.66417c0.04102,-0.56351 0.08911,-1.71443 0.10071,-2.29933c0.0235,-1.18355 0.02014,-1.7805 0.02081,-2.97917c0.00067,-1.19467 0,-1.782 0,-2.35733c0,-1.09866 0,-1.614 0,-2.976c0,-1.056 0.00006,-1.66667 0,-2.60268c-0.00012,-1.14983 -0.00159,-2.08821 -0.01068,-2.59734c-0.01917,-1.07346 -0.03766,-1.62801 -0.07465,-2.18666c-0.10992,-1.65996 -0.18188,-2.1935 -0.35065,-3.21201c-0.15778,-0.95229 -0.21332,-1.40755 -0.66437,-2.90416c-0.18616,-0.61758 -0.56641,-1.47838 -0.8703,-2.10117c-0.56281,-1.15329 -0.79559,-1.60564 -1.31201,-2.59601c-0.27679,-0.53078 -0.56622,-1.07816 -0.88348,-1.62749c-0.97473,-1.6877 -1.3504,-2.22037 -1.71655,-2.74983c-0.3609,-0.52187 -1.09229,-1.50932 -1.45599,-1.97067c-0.68402,-0.86763 -1.32556,-1.62079 -1.89331,-2.26801c-0.51514,-0.58727 -1.03131,-1.15244 -1.53601,-1.78799c-0.89783,-1.13058 -1.20282,-1.60123 -1.90399,-2.58533c-0.36975,-0.51895 -0.74695,-1.04976 -1.13702,-1.58101c-0.39124,-0.53278 -1.58698,-2.05678 -1.99097,-2.52567c-0.39612,-0.45973 -1.198,-1.3309 -1.60004,-1.74933c-0.39801,-0.41423 -1.59998,-1.62135 -2.00128,-2.02267c-0.83466,-0.83469 -1.28406,-1.284 -1.76538,-1.76534c-0.5213,-0.52133 -1.09064,-1.09065 -1.716,-1.71599c-1.45068,-1.45064 -2.28717,-2.28796 -3.18665,-3.18533c-0.9425,-0.94032 -1.91071,-1.90399 -2.88898,-2.86951c-0.96576,-0.95313 -1.90149,-1.87434 -2.79901,-2.7345c-1.56818,-1.50288 -2.22357,-2.09671 -2.79065,-2.59201c-0.48126,-0.42032 -0.90009,-0.76463 -1.26453,-1.04849c-0.31464,-0.24506 -0.60132,-0.45009 -0.8595,-0.64349c-0.49792,-0.37303 -0.75214,-0.58417 -1.01337,-0.81601c-0.2746,-0.2437 -0.56012,-0.50133 -1.12531,-1.08533c-0.60089,-0.62091 -1.19366,-1.30573 -1.78802,-2.024c-0.59503,-0.71907 -0.86115,-1.09364 -1.44415,-1.75166c-1.00317,-1.13228 -1.49713,-1.50395 -2.14648,-1.97101c-1.00659,-0.724 -1.42798,-1.05333 -2.08264,-1.67867c-0.50525,-0.4826 -1.36713,-1.36362 -2.03784,-2.01816c-0.34955,-0.34116 -1.05829,-1.033 -1.8075,-1.64584c-0.70044,-0.57292 -1.72516,-1.18123 -2.32019,-1.55333c-0.55188,-0.34512 -1.43719,-1.25443 -1.76166,-1.858c-0.33997,-0.63248 -0.76306,-1.68298 -1.565,-2.37784c-0.54462,-0.47191 -1.26666,-0.72301 -1.935,-1.06499c-0.98312,-0.50307 -1.80276,-1.19441 -2.25919,-1.72c-0.4491,-0.51717 -1.22949,-1.56853 -1.84164,-2.24318c-0.39236,-0.43242 -1.22025,-1.21686 -1.7955,-1.84499c-0.58987,-0.64407 -0.98856,-1.12935 -1.51917,-2.35901c-0.28793,-0.66731 -0.46622,-1.38399 -0.68402,-2.064c-0.3851,-1.20222 -0.74738,-1.90593 -1.03467,-2.968c-0.21317,-0.78806 -0.22583,-1.48325 -1.01865,-2.39867c-0.37744,-0.43582 -1.2417,-0.81242 -1.89334,-1.716c-0.57352,-0.79525 -0.92477,-1.52969 -1.13318,-2.42799c-0.16116,-0.69469 -0.30536,-1.47025 -0.09448,-2.6655c0.10114,-0.57319 0.9686,-1.62907 1.30167,-1.99917c0.79498,-0.88342 1.26575,-1.36224 1.75467,-1.876c0.50842,-0.53424 1.03201,-1.07949 1.55399,-1.638c1.03464,-1.10705 1.52341,-1.65267 1.98666,-2.188c0.86963,-1.00489 1.25592,-1.48263 1.61069,-1.936c0.6301,-0.80521 1.31619,-2.07914 1.75867,-2.67599c0.46771,-0.63091 1.35281,-1.13382 1.77466,-1.616c0.75546,-0.86351 1.21793,-1.51611 1.89868,-2.36266c0.51691,-0.64284 0.96661,-1.12572 1.65479,-2.04283c0.34515,-0.46003 0.87817,-1.2508 1.27985,-1.77451c0.77765,-1.01385 1.39508,-1.6653 1.79871,-2.07816c0.79321,-0.81138 1.39697,-1.41959 2.05713,-2.0045c0.6955,-0.61622 1.49677,-1.20463 2.06366,-1.6c0.58038,-0.40477 1.48419,-0.99261 2.36566,-1.5955c0.5542,-0.37905 1.35974,-0.83444 1.95105,-1.65183c0.61224,-0.84627 0.8338,-1.46023 1.62866,-2.10001c0.66418,-0.53458 1.49792,-0.89033 2.34448,-1.314c0.5957,-0.29811 1.50153,-0.86578 2.08032,-1.344c0.58026,-0.47942 1.33899,-1.22599 2.14233,-2.028c0.48792,-0.48709 1.01874,-1.02126 1.73065,-1.7305c0.59296,-0.59073 1.22437,-1.22794 1.87805,-1.821c0.84326,-0.76505 1.50177,-1.18219 2.32465,-1.58051c0.81042,-0.39231 1.57703,-0.87319 2.14233,-1.24366c0.89423,-0.58606 1.50977,-0.96364 2.3493,-1.61184c0.54175,-0.41829 1.25812,-1.11497 1.72736,-1.92733c0.44153,-0.76445 0.69946,-1.80502 1.21436,-2.36917c0.67358,-0.73801 1.61523,-0.82903 2.30798,-1.36533c0.81049,-0.62745 1.34644,-1.09011 2,-1.58934c0.72223,-0.55166 1.10522,-0.8373 2.29199,-1.728c0.40009,-0.30026 1.20532,-0.90344 2.02081,-1.52084c0.41559,-0.31462 1.26593,-0.96268 2.14587,-1.64583c0.45605,-0.35406 1.40308,-1.0962 1.90131,-1.48c0.51434,-0.39624 1.04675,-0.80531 1.60803,-1.215c1.81152,-1.32225 2.48541,-1.76152 3.16931,-2.217c0.68848,-0.45855 1.3764,-0.90544 2.05048,-1.338c0.64728,-0.41538 1.25989,-0.80276 1.8255,-1.158c0.94458,-0.59327 1.85144,-1.13555 2.60938,-1.67467c0.82294,-0.58536 1.39636,-1.04642 2.07599,-1.51067c0.70691,-0.48287 1.76239,-1.11591 2.42719,-1.42117c0.59601,-0.27366 1.38434,-0.57783 2.48346,-0.78283c0.84601,-0.15779 1.72986,-0.51468 2.51599,-1.036c0.67023,-0.44447 1.39014,-0.86102 2.13733,-1.16933c0.82349,-0.33981 1.55841,-0.7907 2.17603,-1.348c0.84216,-0.75989 1.47015,-1.24 2.14801,-1.53533c0.86139,-0.37529 1.23633,-1.22162 2.05713,-1.59017c0.86285,-0.38744 1.81622,-0.52042 2.47351,-0.7825c1.01007,-0.40276 1.8327,-0.48689 2.58533,-1.02133c0.85126,-0.60449 1.2077,-1.2492 1.80005,-1.692c0.93481,-0.69876 1.62006,-0.77326 2.56,-1.02933c0.88251,-0.24043 1.55115,-0.53532 2.271,-0.8945c0.77582,-0.38712 1.96021,-1.10124 2.35815,-1.3585c0.7995,-0.51681 1.57062,-1.05164 2.34302,-1.512c0.3678,-0.21922 1.76605,-0.8258 2.39978,-0.98034c0.83478,-0.20356 1.93329,-0.61744 2.43604,-1.272c0.57813,-0.7527 1.02039,-1.47066 1.90399,-1.73067c0.78564,-0.23119 1.53198,-0.69467 1.96399,-1.484l0.72003,-0.6l0.64795,-0.4l0.61603,-0.4"/>
    <path id="svg_3" d="m326,341c8,18 48,56 48,56c0,0 52,2 52,2c0,0 17,-40 17,-40c0,0 -29,-30 -29,-30c0,0 -88,12 -88,12z" stroke-linecap="null" stroke-linejoin="null" stroke-dasharray="null" stroke-width="5" stroke="#56aaff" fill="#56aaff"/>
    <path id="svg_4" d="m300,164c0,0 0,56 19,53c19,-3 15,27 41,12c26,-15 14,-44 14,-44c0,0 -23,-35 -23,-35c0,0 -29,-12 -29,-12c0,0 -14,0 -14,0c0,0 -8,26 -8,26z" stroke-linecap="null" stroke-linejoin="null" stroke-dasharray="null" stroke-width="5" stroke="#56aaff" fill="#56aaff"/>
    <path id="svg_5" d="m153,88c0,19 -46,33 6,36c52,3 -9,17 5,59c14,42 56,32 56,32c0,0 21,115 11,2c-10,-113 -36,-108 -36,-108c0,0 8,-48 -17,-35c-25,13 -25,14 -25,14z" stroke-linecap="null" stroke-linejoin="null" stroke-dasharray="null" stroke-width="5" stroke="#00bf00" fill="#00bf00"/>
    <path id="svg_8" d="m247,65c0,0 -25,25 8,20c33,-5 -8,-18 33,-6" stroke-linecap="null" stroke-linejoin="null" stroke-dasharray="null" stroke-width="5" stroke="#ffd4aa" fill="none"/>
    <path id="svg_9" d="m316,61c53,36 -17,36 35,37c52,1 19,79 59,52c40,-27 39,-34 35,-69c-4,-35 -50,-51 -75,-52c-25,-1 -113,-60 -121,12c-8,72 54,56 54,56" stroke-linecap="null" stroke-linejoin="null" stroke-dasharray="null" stroke-width="5" stroke="#00bf00" fill="#00bf00"/>
    <rect fill-opacity="0" id="svg_10" height="11" width="10" y="171" x="458" stroke-linecap="null" stroke-linejoin="null" stroke-dasharray="null" stroke="#7f7f7f" fill="#000000"/>
    <rect id="svg_11" fill-opacity="0" height="11" width="10" y="172.5" x="494" stroke-linecap="null" stroke-linejoin="null" stroke-dasharray="null" stroke="#7f7f7f" fill="#000000"/>
    <rect id="svg_12" fill-opacity="0" height="11" width="10" y="171.5" x="475" stroke-linecap="null" stroke-linejoin="null" stroke-dasharray="null" stroke="#7f7f7f" fill="#000000"/>
    <rect id="svg_13" height="14" width="62" y="188" x="459" stroke-linecap="null" stroke-linejoin="null" stroke-dasharray="null" stroke="#999999" fill="none"/>
    <text stroke="#ffd4aa" transform="matrix(0.4808436334133148,0,0,0.5625,216.17184395575896,81.9833984375) " xml:space="preserve" text-anchor="middle" font-family="Sans-serif" font-size="24" id="svg_14" y="239.66667" x="639.13522" stroke-linecap="null" stroke-linejoin="null" stroke-dasharray="null" stroke-width="0" fill="#000000">Downtown</text>
    <ellipse ry="3" rx="3" id="svg_15" cy="209" cx="483" stroke-linecap="null" stroke-linejoin="null" stroke-dasharray="null" stroke-width="0" stroke="#000000" fill="#000000"/>
  </g>
</svg>